<svg xmlns="http://www.w3.org/2000/svg" id="Layer_1" version="1.1" viewBox="0 0 8.22 7.09"><defs><style>.st0{fill:none}.st1{fill:#45b649}.st2{fill:#4176ba}</style></defs><g><path d="M1.92,3.54c0,.6.49,1.09,1.09,1.09s1.09-.49,1.09-1.09c0,0,0,0,0,0h-.13v-.06h-1.03c0-.36.09-.7.25-1-.06-.01-.12-.02-.19-.02-.6,0-1.09.49-1.09,1.09Z" class="st0"/><path d="M4.1,3.54c0,.6-.49,1.09-1.09,1.09s-1.09-.49-1.09-1.09.49-1.09,1.09-1.09c.06,0,.12,0,.19.02.18-.34.45-.62.78-.82-.29-.15-.62-.23-.97-.23C1.84,1.42.88,2.37.88,3.54s.95,2.13,2.13,2.13,2.13-.95,2.13-2.13c0,0,0,0,0,0h-1.04s0,0,0,0Z" class="st2"/></g><g><path d="M6.31,3.54c0-.6-.49-1.09-1.09-1.09s-1.09.49-1.09,1.09h.18v.08h.98c0,.36-.09.7-.25,1,.06.01.12.02.19.02.6,0,1.09-.49,1.09-1.09Z" class="st0"/><path d="M5.21,1.42c-1.17,0-2.12.95-2.13,2.12h1.04c0-.6.49-1.09,1.09-1.09s1.09.49,1.09,1.09-.49,1.09-1.09,1.09c-.06,0-.12,0-.19-.02-.18.34-.45.62-.78.82.29.15.62.23.97.23,1.18,0,2.13-.95,2.13-2.13s-.95-2.13-2.13-2.13Z" class="st1"/></g></svg>