<svg fill="none" height="24" viewBox="0 0 24 24" width="24" xmlns="http://www.w3.org/2000/svg" xmlns:xlink="http://www.w3.org/1999/xlink"><clipPath id="clip0_127_2050"><path d="m0 0h24v24h-24z"/></clipPath><g clip-path="url(#clip0_127_2050)" fill="currentColor"><path d="m10.3774 3.5h.6226c.2761 0 .5.22386.5.5s-.2239.5-.5.5h-.6c-1.12836 0-1.94455.00039-2.58648.05284-.63608.05197-1.0569.15255-1.40249.32864-.65856.33555-1.194.87099-1.52955 1.52955-.17609.34559-.27667.76641-.32864 1.40249-.05245.64193-.05284 1.45812-.05284 2.58648v3.2c0 1.1284.00039 1.9446.05284 2.5865.05197.6361.15255 1.0569.32864 1.4025.33555.6585.87099 1.194 1.52955 1.5295.34559.1761.76641.2767 1.40249.3287.64193.0524 1.45812.0528 2.58648.0528h3.2c1.1284 0 1.9446-.0004 2.5865-.0528.6361-.052 1.0569-.1526 1.4025-.3287.6585-.3355 1.194-.871 1.5295-1.5295.1761-.3456.2767-.7664.3287-1.4025.0524-.6419.0528-1.4581.0528-2.5865v-.6c0-.2761.2239-.5.5-.5s.5.2239.5.5v.6226c0 1.101 0 1.9579-.0562 2.6453-.057.6979-.1744 1.265-.4343 1.7751-.4314.8467-1.1198 1.5351-1.9665 1.9665-.5101.2599-1.0772.3773-1.7751.4343-.6874.0562-1.5443.0562-2.6452.0562h-3.2453c-1.10097 0-1.95793 0-2.64531-.0562-.69793-.057-1.26499-.1744-1.77505-.4343-.84673-.4314-1.53514-1.1198-1.96657-1.9665-.25989-.5101-.37729-1.0772-.43431-1.7751-.05616-.6874-.05616-1.5443-.05616-2.6453v-3.2452c0-1.10098 0-1.95792.05616-2.64531.05702-.69793.17442-1.26499.43431-1.77505.43143-.84673 1.11984-1.53514 1.96657-1.96657.51006-.25989 1.07712-.37729 1.77505-.43431.68739-.05616 1.54433-.05616 2.64531-.05616z"/><path d="m19.5 5.20714-6.1464 6.14646c-.1953.1953-.5119.1953-.7072 0-.1952-.1953-.1952-.5119 0-.7071l6.1465-6.1465h-3.7929c-.2761 0-.5-.22386-.5-.5s.2239-.5.5-.5h4.5c.5523 0 1 .44772 1 1v4.5c0 .27614-.2239.5-.5.5s-.5-.22386-.5-.5z"/></g></svg>