<?xml version="1.0" encoding="UTF-8"?>
<svg id="Layer_1" xmlns="http://www.w3.org/2000/svg" version="1.1" viewBox="0 0 211.83 59.96">
  <!-- Generator: Adobe Illustrator 29.0.0, SVG Export Plug-In . SVG Version: 2.1.0 Build 186)  -->
  <defs>
    <style>
      .st0 {
        fill: none;
      }

      .st1 {
        fill: #45b649;
      }

      .st2 {
        fill: #4176ba;
      }

      .st3 {
        fill: #fff;
      }
    </style>
  </defs>
  <path class="st3" d="M199.43,15.57c.63,0,1.11.11,1.45.34s.5.57.5,1.04c0,.29-.07.53-.2.72-.14.18-.33.33-.58.43.08.1.17.22.27.36.09.14.18.28.28.42s.18.3.26.46.16.32.24.47h-1.05c-.08-.14-.16-.28-.23-.42-.08-.14-.16-.28-.24-.41-.08-.13-.17-.26-.25-.38s-.16-.23-.24-.32h-.47v1.53h-.94v-4.13c.21-.04.42-.07.64-.08.22-.02.42-.02.59-.02ZM199.48,16.38c-.07,0-.13,0-.18,0s-.11,0-.15.01v1.14h.27c.35,0,.61-.04.76-.13s.23-.24.23-.45-.08-.35-.23-.44-.38-.13-.69-.13Z"/>
  <path class="st3" d="M199.69,21.77c-2.26,0-4.1-1.84-4.1-4.1s1.84-4.1,4.1-4.1,4.1,1.84,4.1,4.1-1.84,4.1-4.1,4.1ZM199.69,14.18c-1.93,0-3.5,1.57-3.5,3.5s1.57,3.5,3.5,3.5,3.5-1.57,3.5-3.5-1.57-3.5-3.5-3.5Z"/>
  <g>
    <path class="st3" d="M22.99,46.38c-4.87,0-8.57-1.35-11.12-4.06-2.55-2.71-3.82-6.55-3.82-11.53,0-2.48.39-4.69,1.17-6.63.78-1.94,1.84-3.58,3.2-4.92,1.35-1.34,2.97-2.35,4.84-3.04,1.87-.69,3.9-1.04,6.09-1.04,1.27,0,2.42.09,3.46.28,1.04.19,1.94.4,2.72.65.78.24,1.43.5,1.94.76s.89.46,1.12.6l-1.94,5.44c-.92-.49-1.99-.91-3.22-1.25-1.22-.35-2.61-.52-4.17-.52-1.04,0-2.05.17-3.04.52-.99.35-1.87.9-2.63,1.66-.76.76-1.37,1.75-1.84,2.96-.46,1.21-.69,2.68-.69,4.41,0,1.38.15,2.67.45,3.87.3,1.2.79,2.22,1.47,3.09.68.86,1.56,1.55,2.66,2.05,1.09.5,2.42.76,3.97.76.98,0,1.86-.06,2.63-.17.78-.11,1.47-.25,2.07-.41s1.14-.34,1.6-.54c.46-.2.88-.39,1.25-.56l1.86,5.4c-.95.58-2.29,1.09-4.02,1.55-1.73.46-3.73.69-6,.69Z"/>
    <path class="st3" d="M46.09,15.5c4.49,0,7.93.8,10.32,2.4,2.39,1.6,3.58,4.08,3.58,7.45,0,2.1-.48,3.81-1.45,5.12s-2.35,2.34-4.17,3.09c.6.75,1.24,1.61,1.9,2.57.66.96,1.32,1.97,1.96,3.02.65,1.05,1.27,2.15,1.88,3.28.6,1.14,1.17,2.25,1.68,3.35h-7.53c-.55-.98-1.11-1.97-1.67-2.98-.56-1.01-1.14-1.99-1.73-2.94-.59-.95-1.18-1.85-1.76-2.7-.58-.85-1.16-1.62-1.73-2.31h-3.33v10.93h-6.74v-29.5c1.47-.29,2.99-.49,4.56-.6s2.97-.17,4.21-.17ZM46.48,21.25c-.49,0-.93.01-1.32.04s-.76.06-1.1.09v8.12h1.9c2.53,0,4.35-.32,5.44-.95,1.09-.63,1.64-1.71,1.64-3.24s-.55-2.51-1.66-3.13c-1.11-.62-2.74-.93-4.9-.93Z"/>
    <path class="st3" d="M131.29,45.78c-1.93-3.43-4.02-6.81-6.26-10.15-2.25-3.34-4.64-6.49-7.17-9.46v19.61h-6.65V15.85h5.48c.95.95,2,2.12,3.15,3.5,1.15,1.38,2.32,2.86,3.52,4.43,1.2,1.57,2.38,3.2,3.56,4.88,1.18,1.68,2.29,3.3,3.33,4.86V15.85h6.7v29.93h-5.66Z"/>
    <path class="st3" d="M155.56,46.38c-2.1,0-3.92-.3-5.44-.89-1.53-.59-2.79-1.41-3.78-2.46s-1.73-2.3-2.2-3.76c-.48-1.45-.71-3.06-.71-4.82V15.85h6.74v18.05c0,1.21.14,2.24.41,3.09.27.85.65,1.54,1.12,2.07.47.53,1.05.91,1.73,1.14s1.42.35,2.22.35c1.64,0,2.97-.5,4-1.51,1.02-1.01,1.53-2.72,1.53-5.14V15.85h6.74v18.61c0,1.76-.24,3.37-.73,4.84s-1.24,2.73-2.25,3.78c-1.01,1.05-2.29,1.86-3.84,2.44-1.55.58-3.4.86-5.53.86Z"/>
    <path class="st3" d="M182.55,40.64c.95,0,1.73-.08,2.35-.24.62-.16,1.12-.37,1.49-.65.37-.27.63-.6.78-.97.14-.37.22-.79.22-1.25,0-.98-.46-1.79-1.38-2.44-.92-.65-2.5-1.35-4.75-2.1-.98-.35-1.96-.74-2.94-1.19-.98-.45-1.86-1.01-2.64-1.68-.78-.68-1.41-1.5-1.9-2.46-.49-.96-.73-2.14-.73-3.52s.26-2.63.78-3.74c.52-1.11,1.25-2.05,2.2-2.83.95-.78,2.1-1.37,3.45-1.79,1.35-.42,2.88-.63,4.58-.63,2.02,0,3.76.22,5.23.65s2.68.91,3.63,1.42l-1.94,5.31c-.83-.43-1.76-.81-2.79-1.14-1.02-.33-2.25-.5-3.69-.5-1.61,0-2.77.22-3.48.67s-1.06,1.13-1.06,2.05c0,.55.13,1.01.39,1.38.26.38.63.71,1.1,1.02.48.3,1.02.58,1.64.82.62.24,1.3.5,2.05.76,1.56.58,2.91,1.14,4.06,1.71,1.15.56,2.11,1.22,2.87,1.96.76.75,1.33,1.63,1.71,2.64.37,1.01.56,2.23.56,3.67,0,2.79-.98,4.96-2.94,6.5-1.96,1.54-4.91,2.31-8.85,2.31-1.32,0-2.52-.08-3.58-.24-1.07-.16-2.01-.35-2.83-.58s-1.53-.48-2.12-.73c-.59-.26-1.09-.5-1.49-.73l1.9-5.35c.89.49,1.99.93,3.3,1.32s2.92.58,4.82.58Z"/>
    <g>
      <g>
        <path class="st0" d="M69.7,30.57c0,4.38,3.55,7.93,7.93,7.93s7.93-3.55,7.93-7.93c0-.02,0-.04,0-.06h-.92v-.46h-7.49c0-2.64.66-5.12,1.83-7.29-.44-.07-.89-.12-1.34-.12-4.38,0-7.93,3.55-7.93,7.93Z"/>
        <path class="st2" d="M85.57,30.57c0,4.38-3.55,7.93-7.93,7.93s-7.93-3.55-7.93-7.93,3.55-7.93,7.93-7.93c.46,0,.91.05,1.34.12,1.32-2.46,3.29-4.51,5.68-5.95-2.11-1.08-4.49-1.7-7.02-1.7-8.54,0-15.46,6.92-15.46,15.46s6.92,15.46,15.46,15.46,15.46-6.92,15.46-15.46c0-.02,0-.04,0-.06h-7.52s0,.04,0,.06Z"/>
      </g>
      <g>
        <path class="st0" d="M101.57,30.57c0-4.38-3.55-7.93-7.93-7.93s-7.9,3.53-7.93,7.88h1.32v.57h7.1c0,2.64-.66,5.12-1.83,7.29.44.07.89.12,1.34.12,4.38,0,7.93-3.55,7.93-7.93Z"/>
        <path class="st1" d="M93.63,15.11c-8.52,0-15.43,6.89-15.45,15.41h7.52c.03-4.36,3.57-7.88,7.93-7.88s7.93,3.55,7.93,7.93-3.55,7.93-7.93,7.93c-.46,0-.91-.05-1.34-.12-1.32,2.46-3.29,4.51-5.68,5.95,2.11,1.08,4.49,1.7,7.02,1.7,8.54,0,15.46-6.92,15.46-15.46s-6.92-15.46-15.46-15.46Z"/>
      </g>
    </g>
  </g>
</svg>